<svg width="14" height="14" viewBox="0 0 14 14" fill="none" xmlns="http://www.w3.org/2000/svg">
<path d="M7.9668 12.9414C8.25977 12.6484 8.23047 12.209 7.9668 11.916L4.42188 8.54688H12.8594C13.2402 8.54688 13.5625 8.25391 13.5625 7.84375V6.90625C13.5625 6.52539 13.2402 6.20312 12.8594 6.20312H4.42188L7.9668 2.86328C8.23047 2.57031 8.25977 2.13086 7.9668 1.83789L7.32227 1.19336C7.05859 0.929688 6.58984 0.929688 6.32617 1.19336L0.642578 6.90625C0.349609 7.16992 0.349609 7.60938 0.642578 7.87305L6.32617 13.5859C6.58984 13.8496 7.0293 13.8496 7.32227 13.5859L7.9668 12.9414Z" fill="#646464"/>
</svg>
