<svg width="15" height="16" viewBox="0 0 15 16" fill="none" xmlns="http://www.w3.org/2000/svg">
<path d="M6.01953 2.83789C5.72656 3.13086 5.75586 3.57031 6.01953 3.86328L9.56445 7.20312H1.15625C0.746094 7.20312 0.453125 7.52539 0.453125 7.90625V8.84375C0.453125 9.25391 0.746094 9.54688 1.15625 9.54688H9.56445L6.01953 12.916C5.75586 13.209 5.75586 13.6484 6.01953 13.9414L6.66406 14.5859C6.95703 14.8496 7.39648 14.8496 7.66016 14.5859L13.373 8.87305C13.6367 8.60938 13.6367 8.16992 13.373 7.87695L7.66016 2.19336C7.39648 1.92969 6.95703 1.92969 6.66406 2.19336L6.01953 2.83789Z" fill="white"/>
</svg>
