<svg width="29" height="23" viewBox="0 0 29 23" fill="none" xmlns="http://www.w3.org/2000/svg">
<path d="M22.6406 11.375C22.6406 5.26562 17.6094 0.234375 11.5 0.234375C5.3457 0.234375 0.359375 5.26562 0.359375 11.375C0.359375 17.5293 5.3457 22.5156 11.5 22.5156C17.6094 22.5156 22.6406 17.5293 22.6406 11.375ZM10.1973 17.3047C9.92773 17.5742 9.43359 17.5742 9.16406 17.3047L4.49219 12.6328C4.22266 12.3633 4.22266 11.8691 4.49219 11.5996L5.52539 10.6113C5.79492 10.2969 6.24414 10.2969 6.51367 10.6113L9.70312 13.7559L16.4414 7.01758C16.7109 6.70312 17.1602 6.70312 17.4297 7.01758L18.4629 8.00586C18.7324 8.27539 18.7324 8.76953 18.4629 9.03906L10.1973 17.3047Z" fill="#42C457"/>
</svg>
