<svg width="14" height="16" viewBox="0 0 14 16" fill="none" xmlns="http://www.w3.org/2000/svg">
<path d="M9.9375 13.6094H5.01562C4.10742 13.6094 3.375 12.877 3.375 11.9688V3.29688H1.26562C0.855469 3.29688 0.5625 3.61914 0.5625 4V14.7812C0.5625 15.1914 0.855469 15.4844 1.26562 15.4844H9.23438C9.61523 15.4844 9.9375 15.1914 9.9375 14.7812V13.6094ZM9.9375 3.53125V0.484375H5.01562C4.60547 0.484375 4.3125 0.806641 4.3125 1.1875V11.9688C4.3125 12.3789 4.60547 12.6719 5.01562 12.6719H12.9844C13.3652 12.6719 13.6875 12.3789 13.6875 11.9688V4.23438H10.6406C10.2305 4.23438 9.9375 3.94141 9.9375 3.53125ZM13.4531 2.62305L11.5488 0.71875C11.4023 0.572266 11.2266 0.484375 11.0508 0.484375H10.875V3.29688H13.6875V3.12109C13.6875 2.94531 13.5996 2.76953 13.4531 2.62305Z" fill="#959595"/>
</svg>
