<svg width="11" height="17" viewBox="0 0 11 17" fill="none" xmlns="http://www.w3.org/2000/svg">
<path d="M2.8125 14.8145C2.8125 14.9902 2.8418 15.166 2.95898 15.3418L3.45703 16.0742C3.63281 16.3379 3.92578 16.5137 4.24805 16.5137H6.03516C6.35742 16.5137 6.65039 16.3379 6.82617 16.0742L7.32422 15.3418C7.41211 15.166 7.4707 14.9902 7.4707 14.8145V13.6719H2.8125V14.8145ZM0 6.64062C0 7.95898 0.46875 9.13086 1.25977 10.0391C1.75781 10.5957 2.49023 11.7676 2.7832 12.7344C2.7832 12.7344 2.7832 12.7344 2.7832 12.7637H7.5C7.5 12.7344 7.5 12.7344 7.5 12.7344C7.79297 11.7676 8.52539 10.5957 9.02344 10.0391C9.81445 9.13086 10.3125 7.95898 10.3125 6.64062C10.3125 3.79883 7.96875 1.48438 5.12695 1.48438C2.13867 1.51367 0 3.91602 0 6.64062ZM5.15625 4.29688C3.83789 4.29688 2.8125 5.35156 2.8125 6.64062C2.8125 6.9043 2.57812 7.10938 2.34375 7.10938C2.08008 7.10938 1.875 6.9043 1.875 6.64062C1.875 4.85352 3.33984 3.35938 5.15625 3.35938C5.39062 3.35938 5.625 3.59375 5.625 3.82812C5.625 4.0918 5.39062 4.29688 5.15625 4.29688Z" fill="#212529"/>
</svg>
