<svg width="20" height="22" viewBox="0 0 20 22" fill="none" xmlns="http://www.w3.org/2000/svg">
<path d="M10 2.25C5.16797 2.25 1.25 6.16797 1.25 11C1.25 15.832 5.16797 19.75 10 19.75C14.832 19.75 18.75 15.832 18.75 11C18.75 6.16797 14.832 2.25 10 2.25ZM10.7891 15.0117C10.7695 15.707 10.2539 16.1367 9.58594 16.1172C8.94531 16.0977 8.44141 15.6406 8.46094 14.9414C8.48047 14.2461 9.01172 13.8047 9.65234 13.8242C10.3242 13.8438 10.8125 14.3164 10.7891 15.0117ZM12.6914 10.0391C12.5273 10.2695 12.1602 10.5664 11.6992 10.9258L11.1875 11.2773C10.9375 11.4688 10.7812 11.6953 10.6992 11.9531C10.6562 12.0898 10.625 12.4453 10.6172 12.6836C10.6133 12.7305 10.5859 12.8359 10.4414 12.8359C10.2969 12.8359 9.07422 12.8359 8.91406 12.8359C8.75391 12.8359 8.73438 12.7422 8.73828 12.6953C8.76172 12.0469 8.85547 11.5117 9.125 11.082C9.48828 10.5039 10.5117 9.89453 10.5117 9.89453C10.668 9.77734 10.7891 9.65234 10.8828 9.51562C11.0547 9.28125 11.1953 9.01953 11.1953 8.73828C11.1953 8.41406 11.1172 8.10547 10.9102 7.84766C10.668 7.54688 10.4062 7.40234 9.90234 7.40234C9.40625 7.40234 9.11719 7.65234 8.91016 7.98047C8.70312 8.30859 8.73828 8.69531 8.73828 9.04688H6.83594C6.83594 7.71875 7.18359 6.87109 7.91797 6.37109C8.41406 6.03125 9.04688 5.88281 9.78516 5.88281C10.7539 5.88281 11.5234 6.0625 12.2031 6.57812C12.832 7.05469 13.1641 7.72656 13.1641 8.63281C13.1641 9.19141 12.9688 9.66016 12.6914 10.0391Z" fill="black"/>
</svg>
